<?xml version="1.0" encoding="UTF-8"?>
<svg width="800px" height="800px" viewBox="0 0 800 800" version="1.1" xmlns="http://www.w3.org/2000/svg" xmlns:xlink="http://www.w3.org/1999/xlink">
    <title>deno</title>
    <g id="deno" stroke="none" stroke-width="1" fill="none" fill-rule="evenodd">
        <rect id="Rectangle" fill="#FFFFFF" x="0" y="-1" width="801" height="801" rx="400.5"></rect>
        <g id="deno_hr_circle" transform="translate(0.000000, -1.000000)" fill="#000000" fill-rule="nonzero">
            <g id="Group" transform="translate(400.393120, 400.606880) scale(-1, 1) rotate(-180.000000) translate(-400.393120, -400.606880) translate(0.393120, 0.606880)">
                <path d="M368.157248,799.017199 C366.289926,798.820639 360.29484,798.132678 354.889435,797.641278 C278.034398,789.58231 202.358722,757.051597 140.638821,705.356265 C129.238329,695.921376 103.292383,669.97543 93.8574939,658.574939 C42.7518428,597.542998 12.8746929,529.041769 1.86732187,447.960688 C-0.58968059,429.97543 -0.58968059,369.238329 1.86732187,351.253071 C12.8746929,270.17199 42.7518428,201.670762 93.8574939,140.638821 C103.292383,129.238329 129.238329,103.292383 140.638821,93.8574939 C201.670762,42.7518428 270.17199,12.8746929 351.253071,1.86732187 C369.238329,-0.58968059 429.97543,-0.58968059 447.960688,1.86732187 C529.041769,12.8746929 597.542998,42.7518428 658.574939,93.8574939 C669.97543,103.292383 695.921376,129.238329 705.356265,140.638821 C756.461916,201.670762 786.339066,270.17199 797.346437,351.253071 C799.80344,369.238329 799.80344,429.97543 797.346437,447.960688 C786.339066,529.041769 756.461916,597.542998 705.356265,658.574939 C695.921376,669.97543 669.97543,695.921376 658.574939,705.356265 C597.739558,756.265356 528.550369,786.535627 448.550369,797.248157 C439.90172,798.427518 427.321867,798.918919 404.029484,799.115479 C386.240786,799.312039 370.02457,799.213759 368.157248,799.017199 Z M373.071253,756.560197 C373.071253,745.061425 373.857494,720.09828 374.938575,696.412776 C375.528256,684.815725 376.216216,668.206388 376.511057,659.55774 C377.592138,628.894349 380.835381,548.402948 381.326781,541.228501 L381.818182,534.054054 L377.395577,534.545455 C374.938575,534.742015 372.678133,535.331695 372.285012,535.626536 C371.990172,536.019656 371.302211,542.800983 370.909091,550.761671 C369.140049,585.749386 363.341523,721.474201 362.751843,741.326781 L362.162162,763.144963 L364.914005,763.538084 C366.388206,763.734644 368.845209,764.029484 370.41769,764.127764 L373.071253,764.226044 L373.071253,756.560197 Z M467.125307,758.918919 C467.223587,758.820639 467.518428,729.140049 467.813268,692.972973 C468.206388,656.707617 468.697789,624.176904 468.992629,620.638821 C469.287469,617.002457 469.189189,613.857494 468.697789,613.660934 C468.304668,613.366093 465.847666,613.366093 463.390663,613.660934 L458.869779,614.054054 L458.181818,642.653563 C457.788698,658.476658 457.297297,675.970516 457.100737,681.670762 C456.314496,699.066339 455.626536,758.132678 456.216216,759.60688 C456.609337,760.687961 457.690418,760.786241 461.818182,760.09828 C464.668305,759.5086 467.027027,759.017199 467.125307,758.918919 Z M239.80344,725.995086 C240.39312,725.110565 245.012285,670.958231 250.712531,600.09828 C252.579853,576.019656 254.447174,554.004914 254.742015,551.253071 C255.233415,546.240786 255.135135,546.044226 251.990172,544.078624 C250.22113,542.997543 248.452088,542.113022 248.058968,542.113022 C247.764128,542.113022 247.174447,544.668305 246.879607,547.813268 C245.503686,560.589681 240.19656,622.309582 236.461916,666.928747 C234.299754,693.169533 232.334152,716.658477 232.039312,719.213759 C231.547912,723.538084 231.646192,723.931204 234.201474,725.307125 C237.346437,726.977887 239.115479,727.272727 239.80344,725.995086 Z M510.36855,706.240786 C513.120393,705.257985 513.415233,704.766585 514.004914,699.164619 C514.987715,689.336609 514.692875,642.358722 513.611794,642.358722 C510.761671,642.358722 504.864865,645.700246 504.373464,647.567568 C504.078624,648.746929 503.783784,662.702703 503.783784,678.525799 C503.783784,710.46683 503.390663,708.599509 510.36855,706.240786 Z M328.845209,701.621622 C328.845209,698.968059 329.53317,684.324324 330.31941,668.894349 C331.105651,653.464373 331.990172,633.906634 332.383292,625.454545 C333.071253,608.353808 333.267813,608.943489 326.683047,608.550369 C323.439803,608.452088 323.439803,608.452088 323.243243,613.366093 C323.046683,616.117936 322.555283,624.668305 321.965602,632.530713 C321.474201,640.39312 320.29484,657.395577 319.5086,670.36855 C318.722359,683.341523 317.739558,696.216216 317.444717,698.968059 C316.855037,703.882064 316.953317,704.078624 319.60688,705.061425 C321.179361,705.651106 323.931204,706.142506 325.700246,706.142506 C328.845209,706.240786 328.845209,706.240786 328.845209,701.621622 Z M601.474201,688.157248 L604.815725,686.781327 L605.503686,673.611794 C605.798526,666.437346 605.995086,650.909091 605.798526,639.213759 L605.503686,617.788698 L601.375921,619.85258 L597.248157,621.818182 L596.953317,654.447174 C596.756757,672.432432 596.855037,687.665848 597.051597,688.353808 C597.444717,689.82801 597.444717,689.82801 601.474201,688.157248 Z M422.014742,675.282555 C422.604423,674.692875 423.980344,627.027027 424.078624,602.850123 L424.176904,588.304668 L419.55774,588.992629 C416.904177,589.287469 414.742015,589.58231 414.643735,589.68059 C414.348894,589.87715 411.400491,662.702703 411.400491,669.77887 L411.400491,677.051597 L416.412776,676.461916 C419.262899,676.068796 421.719902,675.577396 422.014742,675.282555 Z M648.353808,668.304668 C649.53317,666.928747 649.72973,645.405405 650.02457,526.683047 C650.31941,390.36855 650.31941,386.830467 648.550369,386.830467 C647.469287,386.830467 645.995086,387.420147 645.110565,388.108108 C643.636364,389.189189 643.439803,401.081081 642.948403,517.542998 C642.555283,588.108108 642.063882,652.186732 641.769042,659.95086 L641.179361,674.103194 L644.029484,672.039312 C645.700246,670.859951 647.567568,669.189189 648.353808,668.304668 Z M560.19656,648.157248 C560.687961,647.764128 561.179361,642.162162 561.277641,635.773956 C561.769042,614.054054 561.867322,480.884521 561.375921,480.4914 C561.179361,480.29484 559.410319,480.786241 557.444717,481.572482 L553.906634,483.046683 L553.906634,566.683047 L553.906634,650.22113 L556.658477,649.63145 C558.132678,649.238329 559.70516,648.648649 560.19656,648.157248 Z M288.943489,642.653563 C289.238329,640 289.72973,634.004914 290.02457,629.090909 C290.31941,624.275184 291.007371,613.267813 291.597052,604.717445 C292.776413,587.420147 292.579853,586.339066 286.977887,586.339066 C284.029484,586.339066 283.636364,586.633907 283.243243,589.58231 C282.260442,595.380835 278.820639,643.734644 279.312039,644.520885 C279.80344,645.208845 284.914005,646.977887 287.272727,647.174447 C287.862408,647.272727 288.648649,645.208845 288.943489,642.653563 Z M126.388206,617.592138 C127.469287,607.174447 129.63145,585.356265 131.203931,569.140049 C132.874693,552.923833 134.250614,539.164619 134.250614,538.574939 C134.250614,537.395577 126.683047,533.660934 125.896806,534.447174 C125.405405,534.938575 115.577396,621.916462 115.577396,625.847666 C115.577396,628.206388 123.144963,638.132678 124.127764,637.051597 C124.422604,636.855037 125.405405,628.108108 126.388206,617.592138 Z M511.744472,607.272727 L514.594595,605.601966 L514.692875,584.373464 C514.791155,572.776413 514.987715,559.80344 514.987715,555.577396 C515.184275,546.732187 514.103194,545.257985 508.796069,547.125307 L505.749386,548.206388 L505.749386,556.658477 C505.749386,561.375921 505.454545,575.036855 505.061425,587.125307 L504.471744,608.943489 L506.732187,608.943489 C507.911548,608.943489 510.17199,608.157248 511.744472,607.272727 Z M169.53317,569.140049 C171.302211,550.27027 174.152334,518.427518 176.019656,498.378378 L179.361179,462.014742 L175.528256,458.181818 L171.793612,454.348894 L171.105651,462.113022 C170.712531,466.437346 168.746929,486.486486 166.683047,506.732187 C164.619165,526.977887 161.670762,556.363636 160.19656,571.990172 L157.444717,600.29484 L161.277641,603.832924 C164.717445,607.076167 165.110565,607.174447 165.798526,605.405405 C166.191646,604.422604 167.862408,588.108108 169.53317,569.140049 Z M95.9213759,557.248157 C98.0835381,537.886978 103.783784,486.388206 108.697789,442.850123 C113.611794,399.312039 118.230958,357.346437 119.115479,349.484029 C119.90172,341.621622 121.277641,329.72973 122.063882,322.948403 C123.439803,311.449631 123.439803,310.663391 121.867322,309.484029 C119.5086,307.714988 118.525799,307.911548 118.525799,309.97543 C118.525799,310.859951 117.641278,318.329238 116.560197,326.388206 C114.791155,339.85258 111.842752,362.653563 105.257985,413.857494 C103.882064,424.176904 101.228501,444.717445 99.3611794,459.55774 C97.3955774,474.398034 94.5454545,496.511057 92.972973,508.697789 C91.4004914,520.884521 88.7469287,541.719902 87.0761671,555.184275 C85.3071253,568.550369 84.2260442,580.44226 84.5208845,581.719902 C85.2088452,584.373464 91.007371,593.611794 91.5970516,593.022113 C91.7936118,592.727273 93.7592138,576.707617 95.9213759,557.248157 Z M65.8476658,514.889435 C67.3218673,503.095823 70.0737101,481.572482 71.9410319,466.928747 C73.8083538,452.383292 76.1670762,434.201474 77.2481572,426.633907 L79.1154791,412.874693 L77.0515971,411.105651 C75.8722359,410.12285 74.6928747,409.72973 74.2997543,410.12285 C73.9066339,410.515971 73.1203931,414.447174 72.5307125,418.771499 C71.9410319,423.095823 68.3046683,448.353808 64.3734644,474.791155 L57.3955774,522.948403 L59.6560197,529.63145 C60.8353808,533.267813 62.1130221,536.216216 62.4078624,536.216216 C62.8009828,536.216216 64.2751843,526.584767 65.8476658,514.889435 Z M605.405405,527.764128 C606.781327,526.388206 606.977887,520.29484 606.977887,475.184275 L606.977887,424.176904 L604.226044,424.176904 C598.230958,424.176904 598.329238,422.702703 597.936118,478.525799 L597.641278,529.336609 L600.786241,529.336609 C602.457002,529.336609 604.619165,528.648649 605.405405,527.764128 Z M390.27027,510.17199 C412.481572,506.830467 431.842752,500.638821 451.007371,490.810811 C463.390663,484.422604 469.287469,480 483.046683,466.830467 C503.488943,447.272727 516.068796,430.17199 527.862408,405.995086 C545.061425,370.810811 551.744472,339.65602 560.19656,256.117936 C564.029484,218.673219 569.041769,150.761671 570.12285,122.948403 C570.41769,114.889435 571.105651,101.621622 571.695332,93.4643735 C572.776413,76.1670762 574.054054,78.5257985 558.820639,71.1547912 C537.690418,60.9336609 517.346437,53.8574939 490.515971,47.2727273 C457.690418,39.2137592 436.461916,36.6584767 404.029484,36.5601966 L380.44226,36.4619165 L380.638821,47.7641278 C380.638821,53.955774 381.228501,68.4029484 381.818182,79.7051597 C384.766585,134.447174 384.176904,203.538084 380.34398,241.867322 C378.181818,263.882064 373.955774,290.614251 371.597052,296.511057 C371.105651,297.788698 373.366093,298.869779 383.095823,302.211302 C400.884521,308.402948 416.314496,316.167076 418.673219,320 C422.899263,327.272727 415.331695,337.690418 405.700246,337.690418 C404.029484,337.690418 399.017199,335.921376 394.398034,333.857494 C372.383292,323.734644 328.255528,311.842752 302.800983,309.189189 C285.208845,307.321867 257.886978,308.402948 238.918919,311.842752 C228.599509,313.710074 210.12285,320.687961 194.692875,328.648649 C176.904177,337.886978 165.995086,350.17199 162.751843,364.717445 C160.982801,372.579853 161.474201,388.304668 163.734644,397.149877 C166.191646,406.879607 173.071253,421.031941 179.361179,429.287469 C207.371007,466.142506 265.159705,498.083538 324.422604,509.287469 C343.292383,512.825553 370.02457,513.218673 390.27027,510.17199 Z M693.464373,507.125307 C697.002457,505.651106 697.395577,505.257985 697.395577,501.916462 C697.592138,475.085995 697.002457,413.759214 696.511057,411.203931 C696.412776,410.31941 691.302211,410.22113 689.140049,411.007371 C687.764128,411.498771 687.567568,416.805897 687.567568,460.14742 C687.567568,491.203931 687.960688,508.697789 688.550369,508.697789 C689.041769,508.697789 691.302211,508.009828 693.464373,507.125307 Z M736.412776,453.169533 L739.95086,451.695332 L739.262899,370.31941 C738.476658,266.633907 738.378378,263.587224 734.643735,254.643735 C728.550369,240 728.845209,237.051597 729.434889,301.326781 C729.63145,333.464373 730.12285,365.995086 730.31941,373.562654 C730.515971,381.130221 730.712531,402.457002 730.810811,421.031941 C730.810811,443.439803 731.105651,454.643735 731.793612,454.643735 C732.383292,454.643735 734.447174,453.955774 736.412776,453.169533 Z M145.356265,428.697789 C145.945946,420.737101 145.749386,419.95086 142.899263,413.660934 L139.7543,406.977887 L138.574939,416.805897 C136.707617,432.530713 136.707617,433.218673 140.44226,435.577396 C142.113022,436.756757 143.882064,437.542998 144.176904,437.346437 C144.471744,437.149877 145.061425,433.218673 145.356265,428.697789 Z M84.6191646,369.434889 C85.5036855,361.375921 92.3832924,307.911548 95.9213759,281.670762 C101.228501,241.081081 101.621622,235.282555 99.2628993,237.739558 C98.968059,238.034398 96.7076167,251.695332 94.3488943,268.108108 C79.017199,374.054054 79.1154791,373.366093 80.3931204,374.152334 C83.046683,375.921376 83.9312039,374.938575 84.6191646,369.434889 Z M155.380835,324.422604 C155.970516,321.965602 158.820639,295.331695 158.820639,292.088452 C158.820639,289.336609 155.282555,286.781327 153.710074,288.353808 C153.218673,288.845209 151.941032,297.199017 150.958231,306.830467 C149.87715,316.560197 148.796069,326.683047 148.501229,329.336609 L147.911548,334.250614 L151.351351,330.31941 C153.316953,328.157248 155.085995,325.503686 155.380835,324.422604 Z M234.692875,287.371007 C235.773956,286.388206 236.461916,282.457002 237.346437,271.842752 C238.820639,252.678133 239.017199,254.152334 234.987715,254.152334 C230.859951,254.152334 230.958231,253.857494 229.58231,271.154791 C228.206388,288.746929 228.206388,288.550416 230.859951,288.550416 C232.137592,288.550416 233.808354,287.960688 234.692875,287.371007 Z M312.530713,285.896806 C312.727273,284.914005 313.218673,279.017199 313.611794,272.825553 C313.906634,266.633907 314.791155,252.678133 315.577396,241.867322 C318.329238,202.162162 318.427518,197.149877 316.756757,197.149877 C314.889435,197.149877 314.692875,198.624079 312.530713,226.633907 C311.744472,238.230958 310.27027,256.511057 309.287469,267.223587 C308.402948,277.936118 307.813268,286.879607 308.108108,287.076167 C309.189189,288.255528 312.039312,287.371007 312.530713,285.896806 Z M127.764128,267.027027 C128.353808,266.142506 132.088452,234.692875 136.707617,191.744472 C138.083538,178.771499 139.459459,166.289926 139.7543,163.931204 L140.2457,159.70516 L137.788698,161.277641 C135.921376,162.555283 135.233415,163.832924 135.233415,166.093366 C135.233415,172.285012 131.007371,213.071253 127.764128,238.034398 C125.896806,252.186732 124.422604,264.668305 124.422604,265.847666 C124.422604,267.911548 126.781327,268.697789 127.764128,267.027027 Z M694.938575,225.945946 L694.250614,184.864865 L691.793612,181.228501 C686.191646,172.972973 686.486486,171.400491 686.781327,217.395577 L686.977887,259.55774 L690.614251,263.292383 C692.579853,265.257985 694.545455,266.928747 694.938575,266.928747 C695.233415,266.928747 695.233415,248.452088 694.938575,225.945946 Z M604.029484,160.786241 C604.520885,103.685504 604.422604,99.2628993 602.850123,97.4938575 C601.867322,96.4127764 600.982801,95.7248157 600.687961,96.019656 C600,96.8058968 599.017199,221.326781 599.80344,222.014742 C600.19656,222.407862 601.179361,222.604423 602.063882,222.506143 C603.341523,222.211302 603.636364,215.233415 604.029484,160.786241 Z M283.046683,199.90172 C283.734644,193.808354 286.191646,164.619165 287.174447,150.859951 C287.764128,141.621622 287.764128,141.326781 285.601966,140.638821 C284.422604,140.2457 283.046683,140.34398 282.653563,140.835381 C281.965602,141.523342 279.80344,163.341523 277.149877,196.953317 L276.461916,205.012285 L279.5086,205.012285 C282.358722,205.012285 282.555283,204.815725 283.046683,199.90172 Z M205.798526,165.503686 C206.486486,164.815725 206.977887,162.358722 206.977887,159.90172 C206.977887,157.346437 208.157248,144.078624 209.434889,130.31941 C213.169533,92.6781327 213.464373,87.5675676 211.793612,88.5503686 C209.238329,90.02457 206.977887,92.2850123 207.469287,92.8746929 C207.665848,93.2678133 207.272727,98.1818182 206.486486,103.783784 C205.798526,109.484029 204.914005,118.722359 204.520885,124.422604 C204.127764,130.12285 203.243243,140.540541 202.457002,147.518428 C200.589681,164.717445 200.687961,166.683047 202.850123,166.683047 C203.832924,166.683047 205.110565,166.191646 205.798526,165.503686 Z M252.285012,99.3611794 C252.579853,97.1990172 253.169533,89.1400491 253.562654,81.4742015 C254.250614,66.7321867 253.955774,65.6511057 249.92629,68.6977887 C248.746929,69.5823096 247.960688,73.3169533 246.781327,84.5208845 C244.717445,104.766585 244.619165,103.980344 248.452088,103.587224 C251.302211,103.292383 251.695332,102.899263 252.285012,99.3611794 Z" id="Shape"></path>
                <path d="M217.199017,463.095823 C206.977887,458.673219 206.191646,444.815725 215.823096,439.90172 C222.800983,436.363636 229.87715,438.034398 233.513514,444.127764 C240.39312,455.331695 229.189189,468.304668 217.199017,463.095823 Z" id="Path"></path>
                <path d="M283.832924,453.660934 C274.398034,447.862408 274.398034,433.906634 283.832924,428.108108 C293.169533,422.506143 305.257985,429.87715 305.257985,441.081081 C305.257985,451.891892 292.874693,459.164619 283.832924,453.660934 Z" id="Path"></path>
            </g>
        </g>
    </g>
</svg>